<?xml version="1.0" encoding="utf-8"?>
<!-- Generator: Adobe Illustrator 27.5.0, SVG Export Plug-In . SVG Version: 6.00 Build 0)  -->
<svg version="1.1" id="Layer_1" xmlns="http://www.w3.org/2000/svg" xmlns:xlink="http://www.w3.org/1999/xlink" x="0px" y="0px"
	 viewBox="0 0 1000 1000" style="enable-background:new 0 0 1000 1000;" xml:space="preserve">
<style type="text/css">
	.st0{fill:#00415E;}
	.st1{fill:none;}
	.st2{fill:#137DAB;}
	.st3{fill:#0D668B;}
</style>
<g>
	
		<rect x="432" y="600.6" transform="matrix(0.7071 0.7071 -0.7071 0.7071 618.7247 -157.519)" class="st0" width="135" height="135"/>
	<g>
		<polygon class="st1" points="142.4,662.1 368.7,662.1 500.7,531 431.7,370.5 		"/>
		<polygon class="st2" points="142.4,662.1 368.7,662.1 256.2,547.4 		"/>
		<polygon class="st3" points="368.7,662.1 431.7,370.5 256.2,547.4 		"/>
		<polygon class="st0" points="368.7,662.1 500.7,531 431.7,370.5 		"/>
		<polygon class="st2" points="500,531.9 500,413.2 431.7,370.5 		"/>
		<polygon class="st0" points="500,413.2 500,236.4 431.7,370.5 		"/>
	</g>
	<g>
		<polygon class="st1" points="857.6,662.1 631.3,662.1 499.3,531 568.3,370.5 		"/>
		<polygon class="st2" points="857.6,662.1 631.3,662.1 743.8,547.4 		"/>
		<polygon class="st3" points="631.3,662.1 568.3,370.5 743.8,547.4 		"/>
		<polygon class="st0" points="631.3,662.1 500,531.9 568.3,370.5 		"/>
		<polygon class="st2" points="500,531.5 500,413.2 568.3,370.5 		"/>
		<polygon class="st3" points="500,413.2 500,236.4 568.3,370.5 		"/>
	</g>
</g>
</svg>
